# xmcd
#
# Track frame offsets:
#	150
#	4222
#	19425
#	38027
#	58410
#	75177
#	93126
#	109830
#	111154
#	119869
#	138210
#	158102
#	172161
#	183087
#	198562
#
# Disc length: 2974 seconds
#
# Revision: 1
# Processed by: cddbd v1.5.2PL0 Copyright (c) Steve Scherf et al.
# Submitted via: audiograbber 1.83.01
#
DISCID=c90b9c0f
DTITLE=Maria Bethânia - Noite Luzidia - CD 2
DYEAR=2001
DGENRE=Ballad
TTITLE0=Adeus, Meu Santo Amaro (citação)
TTITLE1=Noite de Estrelas (com Roberto Mendes)
TTITLE2=As Canções Que Você Fez Pra Mim
TTITLE3=Antes Que Amanheça (com Chico César)
TTITLE4=Juntar o Que Sentir (com Renato Teixeira)
TTITLE5=Depois de Ter Você (com Adriana Calcanhoto)
TTITLE6=Pra Rua Me Levar (com Ana Carolina)
TTITLE7=Texto-Apesar das Ruínas e da Morte
TTITLE8=Sonho Impossível (The Quest - The Impossible Dream)
TTITLE9=Sem Fantasia (com Chico Buarque)
TTITLE10=A Moça do Sonho (com Chico Buarque e Edu Lobo)
TTITLE11=Maricotinha (com Moreno Veloso, Nana Caymmi e Dori Caymmi)
TTITLE12=Começaria Tudo Outra Vez - Travessia (citação)
TTITLE13=Alegria
TTITLE14=O Que É, O Que É
EXTD=
EXTT0=
EXTT1=
EXTT2=
EXTT3=
EXTT4=
EXTT5=
EXTT6=
EXTT7=
EXTT8=
EXTT9=
EXTT10=
EXTT11=
EXTT12=
EXTT13=
EXTT14=
PLAYORDER=
